<svg xmlns="http://www.w3.org/2000/svg">
    <symbol viewBox="0 0 65 37" id="vk">
        <path d="M64.6366 32.5273C64.5327 32.376 64.4808 32.2248 64.4289 32.1239C63.2867 30.1575 61.1581 27.7374 57.9912 24.8634L57.9393 24.813L57.8874 24.7626L57.8355 24.7122H57.7835C56.3299 23.3508 55.4473 22.4937 55.0319 22.0399C54.357 21.1827 54.1494 20.2752 54.5647 19.3676C54.8243 18.7122 55.8626 17.25 57.6278 15.0819C58.5623 13.9222 59.2891 13.0147 59.8083 12.3088C63.7021 7.26678 65.4153 4.03989 64.8962 2.62812L64.6885 2.3256C64.5327 2.12392 64.2212 1.92224 63.6502 1.77098C63.0791 1.61972 62.3522 1.5693 61.4697 1.67014L51.7612 1.72056C51.6054 1.67014 51.3978 1.67014 51.0863 1.72056C50.7748 1.77098 50.619 1.8214 50.619 1.8214L50.4633 1.92224L50.3075 2.02308C50.2037 2.0735 50.0479 2.22476 49.9441 2.37602C49.7883 2.52728 49.6845 2.72896 49.6326 2.93064C48.5942 5.60291 47.3482 8.02308 45.9984 10.3424C45.1677 11.7038 44.389 12.8634 43.7141 13.8718C43.0391 14.8802 42.4161 15.5861 41.9489 16.0903C41.4816 16.5441 41.0663 16.9474 40.651 17.1995C40.2875 17.5021 39.976 17.6029 39.7684 17.5525C39.5607 17.5021 39.353 17.4517 39.1973 17.4012C38.8858 17.1996 38.6262 16.9475 38.4185 16.5945C38.2109 16.2416 38.107 15.8382 38.0032 15.334C37.9513 14.8298 37.8994 14.376 37.8994 14.0231C37.8994 13.6701 37.8994 13.1155 37.8994 12.4601C37.8994 11.8046 37.9513 11.3004 37.9513 11.0987C37.9513 10.2416 37.9513 9.38443 38.0032 8.37602C38.0551 7.41804 38.0551 6.61132 38.107 6.05669C38.107 5.50207 38.1589 4.89703 38.1589 4.24157C38.1589 3.58611 38.107 3.13232 38.0551 2.72896C38.0032 2.37602 37.8474 2.02308 37.6917 1.67014C37.5359 1.3172 37.2764 1.0651 37.0168 0.863416C36.7053 0.661736 36.3419 0.510475 35.8746 0.409635C34.6805 0.157534 33.1749 0.00627364 31.3059 0.00627364C27.0487 -0.0441465 24.401 0.207954 23.155 0.812996C22.6877 1.0651 22.2724 1.36762 21.857 1.8214C21.4417 2.3256 21.3898 2.5777 21.7013 2.62812C23.0511 2.8298 24.0375 3.28358 24.5567 4.03989L24.7644 4.44325C24.9201 4.74577 25.0759 5.24997 25.2316 5.95585C25.3874 6.66174 25.4912 7.46846 25.5431 8.37602C25.647 9.98947 25.647 11.3508 25.5431 12.4601C25.4393 13.6197 25.3355 14.4769 25.2316 15.1323C25.1278 15.7878 24.972 16.292 24.7644 16.6953C24.5567 17.0987 24.401 17.3508 24.349 17.4012C24.2971 17.5021 24.2452 17.5525 24.1933 17.5525C23.8818 17.6533 23.5703 17.7038 23.2588 17.7038C22.9473 17.7038 22.5839 17.5525 22.1166 17.25C21.6494 16.9475 21.1821 16.5441 20.7149 15.9895C20.2476 15.4348 19.6765 14.729 19.0535 13.7206C18.4305 12.7626 17.8075 11.6029 17.1845 10.292L16.6653 9.334C16.3019 8.72896 15.8866 7.8214 15.2636 6.66174C14.6925 5.50207 14.1733 4.34241 13.7061 3.28358C13.5503 2.8298 13.2388 2.47686 12.8754 2.22476L12.7196 2.12392C12.6158 2.02308 12.4081 1.92224 12.2005 1.8214C11.9409 1.72056 11.6813 1.67014 11.4217 1.61972L2.18051 1.67014C1.24601 1.67014 0.571086 1.87182 0.259585 2.27518L0.103834 2.47686C0.0519169 2.5777 0 2.77938 0 2.98106C0 3.23316 0.0519169 3.53569 0.207668 3.88863C1.55751 6.96426 3.01118 9.93905 4.62061 12.813C6.23003 15.6869 7.57987 18.0063 8.77396 19.771C9.96805 21.5357 11.1621 23.1996 12.3562 24.7122C13.5503 26.2752 14.381 27.2836 14.7963 27.6869C15.2117 28.1407 15.5232 28.4432 15.7308 28.6953L16.5615 29.5021C17.0807 30.0063 17.9113 30.6617 18.9497 31.3676C19.988 32.1239 21.1821 32.8298 22.4281 33.5357C23.726 34.2416 25.1797 34.8466 26.893 35.3004C28.6062 35.7542 30.2157 35.9559 31.8251 35.855H35.7189C36.4976 35.8046 37.1206 35.5525 37.5359 35.1491L37.6917 34.9979C37.7955 34.8466 37.8474 34.6449 37.9513 34.3928C38.0551 34.1407 38.0551 33.8382 38.0551 33.4853C38.0551 32.5273 38.107 31.6701 38.2628 30.9138C38.4185 30.1575 38.6262 29.6029 38.8339 29.1996C39.0415 28.7962 39.3011 28.4937 39.5607 28.2416C39.8203 27.9895 40.028 27.8382 40.1318 27.7878C40.2356 27.7374 40.3395 27.6869 40.3914 27.6869C40.9105 27.5357 41.5855 27.6869 42.3123 28.1911C43.0391 28.6953 43.7141 29.3508 44.389 30.1071C45.012 30.8634 45.7907 31.7206 46.7252 32.6785C47.6078 33.6365 48.4385 34.3424 49.1134 34.7962L49.7883 35.1996C50.2556 35.4517 50.8267 35.7038 51.5535 35.9054C52.2804 36.1071 52.9034 36.1575 53.4225 36.0567L62.0927 35.9054C62.9233 35.9054 63.5982 35.7542 64.0655 35.5021C64.5327 35.25 64.8442 34.9474 64.8962 34.5945C65 34.2416 65 33.8886 64.8962 33.4853C64.7923 32.9811 64.7404 32.6785 64.6366 32.5273Z"
              fill="currentColor"/>
    </symbol>
    <symbol viewBox="0 0 51 51" id="instagram">
        <path d="M36.4886 51H14.5114C6.52852 51 0 44.5038 0 36.4886V14.5114C0 6.52852 6.52852 0 14.5114 0H36.4886C44.5038 0 51 6.52852 51 14.5114V36.4886C51 44.5038 44.5038 51 36.4886 51ZM14.5114 4.36312C8.92015 4.36312 4.36312 8.92015 4.36312 14.5114V36.4886C4.36312 42.0798 8.92015 46.6369 14.5114 46.6369H36.4886C42.0798 46.6369 46.6369 42.0798 46.6369 36.4886V14.5114C46.6369 8.92015 42.0798 4.36312 36.4886 4.36312H14.5114Z"
              fill="currentColor"/>
        <path d="M25.4999 38.5569C18.2927 38.5569 12.4429 32.7071 12.4429 25.4999C12.4429 18.2927 18.2927 12.4429 25.4999 12.4429C32.7071 12.4429 38.5569 18.2927 38.5569 25.4999C38.5569 32.7071 32.7071 38.5569 25.4999 38.5569ZM25.4999 16.806C20.7166 16.806 16.806 20.7166 16.806 25.4999C16.806 30.2832 20.7166 34.1938 25.4999 34.1938C30.2832 34.1938 34.1938 30.2832 34.1938 25.4999C34.1938 20.7166 30.2832 16.806 25.4999 16.806Z"
              fill="currentColor"/>
        <path d="M42.2739 11.6994C42.2739 13.4447 40.8841 14.8344 39.1389 14.8344C37.3936 14.8344 36.0039 13.4447 36.0039 11.6994C36.0039 9.95419 37.3936 8.56445 39.1389 8.56445C40.8518 8.56445 42.2739 9.95419 42.2739 11.6994Z"
              fill="currentColor"/>
    </symbol>
</svg>